<svg width="785" height="419" viewBox="0 0 785 419" fill="none" xmlns="http://www.w3.org/2000/svg">
<path d="M59.5 28H367L350.959 101.626H147.286L138.536 144.017H341.5L326.168 207.876H124.926L112.774 256.748H319L305 335H0L59.5 28Z" fill="#1E1E1E"/>
<path d="M468.049 26.3901H383.255L446.645 174.082C576.046 85.4114 641.919 41.3913 766.477 0C635.351 19.6819 583.757 47.666 470.519 118.987C472.761 99.7395 482.933 89.0457 489.865 81.9481L468.049 26.3901Z" fill="#1E1E1E"/>
<path d="M785 13.8895C534.765 109.494 384.323 220.796 268 419C377.032 351.717 403.964 307.338 522.795 281.031L503 306.5L522.795 360L620.5 377L545.5 203C480.785 227.088 450.234 264.137 371.729 324.088C471.974 190.041 643.479 107.784 785 13.8895Z" fill="#1E1E1E"/>
</svg>
