<svg width="311" height="307" viewBox="0 0 311 307" fill="none" xmlns="http://www.w3.org/2000/svg">
<path d="M248.108 5.53711C247.418 2.3078 244.565 0 241.263 0H176.134C171.661 0 168.336 4.13742 169.298 8.50552L233.715 301.006C234.421 304.215 237.265 306.5 240.551 306.5H303.771C308.226 306.5 311.547 302.394 310.616 298.037L248.108 5.53711Z" fill="url(#paint0_linear_5_7)"/>
<path d="M7.00134 306.5C2.73957 306.5 -0.533224 302.724 0.0723724 298.505L42.0626 6.00531C42.5573 2.55891 45.5098 0 48.9915 0H96.1459C100.477 0 103.768 3.893 103.049 8.16357L79.7254 146.521C78.505 153.761 87.8324 157.757 92.2318 151.88L203.825 2.80511C205.147 1.03946 207.223 0 209.429 0H257.422C261.827 0 265.138 4.02119 264.291 8.3448L207.032 300.845C206.389 304.13 203.51 306.5 200.162 306.5H162.711C158.378 306.5 155.085 302.603 155.809 298.33L179.683 157.474C180.905 150.266 171.65 146.246 167.216 152.059L51.5051 303.746C50.181 305.481 48.1228 306.5 45.9396 306.5H7.00134Z" fill="url(#paint1_linear_5_7)"/>
<defs>
<linearGradient id="paint0_linear_5_7" x1="155.675" y1="-2.3779e-06" x2="155.675" y2="306.5" gradientUnits="userSpaceOnUse">
<stop stop-color="#9A2828"/>
<stop offset="1" stop-color="#9B468C"/>
</linearGradient>
<linearGradient id="paint1_linear_5_7" x1="155.675" y1="-2.3779e-06" x2="155.675" y2="306.5" gradientUnits="userSpaceOnUse">
<stop stop-color="#FF00A2"/>
<stop offset="1" stop-color="#8B3838"/>
</linearGradient>
</defs>
</svg>
